HIERARCHY
ROOT Hips
{
  OFFSET 57.8838 95.319 338.509
  CHANNELS 6 Xposition Yposition Zposition Zrotation Xrotation Yrotation
  JOINT LeftUpLeg
  {
    OFFSET 8.64259 1.95398 -2.38835
    CHANNELS 3 Zrotation Xrotation Yrotation
    JOINT LeftLeg
    {
      OFFSET 43.7702 0 0
      CHANNELS 3 Zrotation Xrotation Yrotation
      JOINT LeftFoot
      {
        OFFSET 40.6238 0 0
        CHANNELS 3 Zrotation Xrotation Yrotation
        JOINT LeftToeBase
        {
          OFFSET 12.7242 0 0
          CHANNELS 3 Zrotation Xrotation Yrotation
          End Site
          {
            OFFSET 0 0 0
          }
        }
      }
    }
  }
  JOINT RightUpLeg
  {
    OFFSET -8.2249 1.95398 -2.59336
    CHANNELS 3 Zrotation Xrotation Yrotation
    JOINT RightLeg
    {
      OFFSET 43.5653 0 0
      CHANNELS 3 Zrotation Xrotation Yrotation
      JOINT RightFoot
      {
        OFFSET 40.6238 0 0
        CHANNELS 3 Zrotation Xrotation Yrotation
        JOINT RightToeBase
        {
          OFFSET 12.7242 0 0
          CHANNELS 3 Zrotation Xrotation Yrotation
          End Site
          {
            OFFSET 0 0 0
          }
        }
      }
    }
  }
  JOINT Spine
  {
    OFFSET 0.165834 0.87714 6.61349
    CHANNELS 3 Zrotation Xrotation Yrotation
    JOINT Spine1
    {
      OFFSET 7.38963 1.71661e-005 0
      CHANNELS 3 Zrotation Xrotation Yrotation
      JOINT Spine2
      {
        OFFSET 11.9445 1.14441e-005 0
        CHANNELS 3 Zrotation Xrotation Yrotation
        JOINT Spine3
        {
          OFFSET 14.7254 4.19617e-005 0
          CHANNELS 3 Zrotation Xrotation Yrotation
          JOINT Spine4
          {
            OFFSET 10.9679 0 0
            CHANNELS 3 Zrotation Xrotation Yrotation
            JOINT RightShoulder
            {
              OFFSET 2.46616 -1.6653 3.69651
              CHANNELS 3 Zrotation Xrotation Yrotation
              JOINT RightArm
              {
                OFFSET 13.0012 0 0
                CHANNELS 3 Zrotation Xrotation Yrotation
                JOINT RightForeArm
                {
                  OFFSET 28.7848 1.62311e-005 0
                  CHANNELS 3 Zrotation Xrotation Yrotation
                  JOINT RightHand
                  {
                    OFFSET 26.5688 1.62095e-005 0
                    CHANNELS 3 Zrotation Xrotation Yrotation
                    End Site
                    {
                      OFFSET 0 0 0
                    }
                  }
                }
              }
            }
            JOINT LeftShoulder
            {
              OFFSET 2.38034 -1.29275 -3.7523
              CHANNELS 3 Zrotation Xrotation Yrotation
              JOINT LeftArm
              {
                OFFSET 16.3182 6.07031e-005 0
                CHANNELS 3 Zrotation Xrotation Yrotation
                JOINT LeftForeArm
                {
                  OFFSET 27.0901 0 0
                  CHANNELS 3 Zrotation Xrotation Yrotation
                  JOINT LeftHand
                  {
                    OFFSET 24.5451 1.51738e-005 0
                    CHANNELS 3 Zrotation Xrotation Yrotation
                    End Site
                    {
                      OFFSET 0 0 0
                    }
                  }
                }
              }
            }
            JOINT Neck
            {
              OFFSET 5.0226 -0.0266342 0
              CHANNELS 3 Zrotation Xrotation Yrotation
              JOINT Head
              {
                OFFSET 6.69364 2.86102e-005 0
                CHANNELS 3 Zrotation Xrotation Yrotation
                End Site
                {
                  OFFSET 0 0 0
                }
              }
            }
          }
        }
      }
    }
  }
}
MOTION
Frames:	11
Frame Time:	0.0416667
272.837 77.6215 -275.852 153.332 -5.82616 -175.622 -171.514 43.6338 -161.673 89.4115 15.9574 152.929 46.3055 -20.398 20.8674 35.155 10.1283 130.327 136.946 -30.1216 43.2405 -48.3551 -63.0563 27.1439 63.0065 -14.6478 -15.74 38.854 3.85196 177.006 -5.44131 13.0039 -87.6709 0.985016 -9.97961 4.17779 -10.6555 -9.78605 4.61596 -33.4961 -10.7677 0.953961 -13.4835 -10.7677 0.953951 115.007 -27.7211 -55.0787 52.806 28.895 -19.1513 -6.59219 56.0965 -0.00150045 7.81128 0.77162 4.61371 -76.3068 -55.6032 99.2903 26.3098 -0.476688 75.7128 48.6526 53.9156 -132.746 -15.8572 -7.20732 51.1236 -84.252 12.9736 -16.8897 34.8022 25.2959 64.3297 
273.072 77.6676 -276.072 153.318 -5.63834 -175.595 -172.003 43.5287 -161.264 89.7894 16.6587 152.695 46.585 -20.249 20.8258 35.1618 10.2339 130.311 136.808 -30.3353 43.0515 -48.6977 -62.9162 27.0873 63.0465 -15.057 -15.8467 34.2402 0.573001 177.421 -5.44461 13.0256 -87.6628 0.941611 -9.98267 4.18749 -10.6989 -9.78878 4.62584 -33.5397 -10.7745 0.961981 -13.527 -10.7745 0.961986 115.033 -27.9761 -55.133 52.4384 28.8655 -18.9548 -6.41292 56.5914 -0.00152005 7.8038 0.796663 4.97782 -76.168 -55.3512 99.4934 26.2393 -0.622498 75.5051 49.2518 53.9721 -133.211 -15.6536 -7.10985 51.1955 -84.1955 12.9807 -16.8741 34.7361 25.313 64.4292 
273.793 77.8087 -276.749 153.269 -5.06215 -175.512 -173.505 43.1954 -160.047 91.0307 18.8683 151.927 47.4507 -19.7887 20.6324 35.1893 10.5964 130.18 136.364 -31.0039 42.4628 -49.7671 -62.456 26.8943 63.1685 -16.3394 -16.1708 18.4739 -10.6061 176.62 -5.455 13.0923 -87.6378 0.8081 -9.9952 4.21718 -10.8324 -9.80004 4.65607 -33.6737 -10.7957 0.986333 -13.6611 -10.7957 0.98632 115.111 -28.7673 -55.3037 51.2873 28.7501 -18.3203 -5.84119 58.0829 -0.00158305 7.75711 0.865474 6.02488 -75.7477 -54.5776 100.116 26.0122 -1.07741 74.8663 51.1241 54.1163 -134.661 -15.0212 -6.80297 51.4034 -84.0199 13.003 -16.8261 34.5329 25.3651 64.7353 
274.937 78.0278 -277.827 153.184 -4.14583 -175.379 -175.886 42.6413 -158.186 93.287 22.4845 150.522 48.8415 -19.0633 20.1131 35.2622 11.2915 129.696 135.59 -32.1038 41.4975 -51.5253 -61.6199 26.5211 63.3624 -18.4621 -16.6675 -12.1402 -27.5798 166.798 -5.47215 13.1991 -87.598 0.594664 -10.0171 4.26409 -11.0459 -9.81985 4.70389 -33.8882 -10.8306 1.02432 -13.8756 -10.8306 1.02431 115.23 -30.0507 -55.5876 49.3909 28.4911 -17.211 -4.87811 60.3956 -0.00169419 7.61046 0.950491 7.49461 -75.0973 -53.3492 101.102 25.6193 -1.82413 73.847 54.1971 54.2502 -137.025 -13.9947 -6.29328 51.6941 -83.734 13.0399 -16.7485 34.2079 25.4471 65.2247 
276.449 78.3046 -279.26 153.057 -2.92791 -175.199 -179.045 41.8704 -155.847 96.8689 27.3777 148.237 50.6855 -18.1519 19.0202 35.4201 12.4263 128.611 134.422 -33.6304 40.1532 -53.9793 -60.273 25.8888 63.6287 -21.4541 -17.2716 -57.6443 -36.256 141.871 -5.49623 13.3418 -87.545 0.308846 -10.0487 4.32593 -11.3316 -9.84873 4.76707 -34.1755 -10.8793 1.07354 -14.1629 -10.8793 1.07354 115.374 -31.8009 -55.9903 46.7578 28.0027 -15.5382 -3.52864 63.4255 -0.00187085 7.30518 1.0216 9.14583 -74.2701 -51.7262 102.399 25.0384 -2.86124 72.4905 58.4251 54.2365 -140.24 -12.5972 -5.57928 51.999 -83.3426 13.0921 -16.6426 33.7714 25.5541 65.8798 
278.271 78.6119 -281.003 152.883 -1.44719 -174.974 177.118 40.9061 -153.203 102.229 33.1956 144.663 52.8525 -17.1972 17.1031 35.7167 14.0603 126.764 132.753 -35.5803 38.4068 -57.167 -58.1609 24.8835 64.0031 -25.4044 -17.8571 -92.0467 -30.1294 121.97 -5.52736 13.5171 -87.4804 -0.0417929 -10.091 4.40031 -11.6823 -9.88771 4.84324 -34.5283 -10.9419 1.13142 -14.5156 -10.9419 1.13142 115.525 -33.9931 -56.5226 43.406 27.1843 -13.1768 -1.83561 67.1458 -0.00215493 6.79815 1.05145 10.7932 -73.3235 -49.7781 103.948 24.2412 -4.18835 70.845 63.7045 53.9063 -144.165 -10.8599 -4.66538 52.2241 -82.85 13.1608 -16.5095 33.2334 25.6808 66.6826 
280.337 78.9108 -283.009 152.653 0.256652 -174.707 172.691 39.8092 -150.424 109.889 39.2062 139.276 55.1335 -16.3941 14.2204 36.2025 16.123 124.164 130.418 -37.9413 36.2056 -61.1794 -54.7754 23.3398 64.6432 -30.5223 -18.124 -104.499 -23.867 115.355 -5.56575 13.7209 -87.4059 -0.449914 -10.1449 4.48465 -12.0902 -9.93786 4.92988 -34.939 -11.0186 1.1952 -14.9263 -11.0186 1.19521 115.659 -36.5982 -57.197 39.3869 25.94 -9.96133 -0.160964 71.6058 0.273251 6.05619 1.01706 12.3181 -72.313 -47.5883 105.69 23.1988 -5.7994 68.9633 69.8252 53.0814 -148.531 -8.83294 -3.57177 52.2406 -82.26 13.2476 -16.3501 32.6039 25.8221 67.6149 
282.585 79.1436 -285.236 152.36 2.14577 -174.396 167.747 38.6845 -147.663 120.156 44.3213 131.711 57.2842 -15.9036 10.4526 36.8916 18.3788 121.012 127.159 -40.6773 33.4568 -66.1675 -49.0508 21.0455 66.1188 -37.2685 -17.2658 -99.8392 -24.0687 116.52 -5.61156 13.9499 -87.3233 -0.908441 -10.2112 4.57633 -12.5486 -10.0001 5.02442 -35.4009 -11.1093 1.26213 -15.3883 -11.1093 1.26213 115.746 -39.5796 -58.0297 34.809 24.2184 -5.69381 7.28479 76.657 -5.31091 5.04013 0.907249 13.6522 -71.2886 -45.2466 107.563 21.8862 -7.68302 66.8994 76.467 51.6154 -152.928 -6.59155 -2.34649 51.8837 -81.5766 13.3544 -16.1649 31.8931 25.9731 68.6579 
284.96 79.2226 -287.647 151.997 4.18579 -174.039 162.312 37.6583 -145.042 132.569 47.4515 122.342 59.1016 -15.7757 6.06685 37.7366 20.5125 117.615 122.576 -43.7116 30.0227 -72.2013 -38.7752 17.8879 70.5216 -46.5223 -12.8719 -70.4562 -30.4461 130.228 -5.66474 14.2009 -87.2338 -1.41128 -10.2904 4.67274 -13.0512 -10.075 5.12423 -35.9078 -11.2137 1.32956 -15.8952 -11.2137 1.32955 115.747 -42.8919 -59.0437 29.8466 22.058 -0.1667 48.5325 78.3975 -45.0389 3.69191 0.726282 14.7371 -70.2899 -42.8397 109.507 20.2865 -9.82257 64.7011 83.2649 49.4362 -156.872 -4.23066 -1.06535 50.9587 -80.8034 13.4826 -15.9548 31.1108 26.129 69.794 
287.441 78.976 -290.23 151.558 6.34542 -173.632 156.34 36.8279 -142.666 145.493 48.0226 112.577 60.4544 -15.9356 1.44152 38.6293 22.249 114.302 116.09 -46.9088 25.7393 -78.9302 -19.6635 14.1394 86.7753 -58.8292 4.17598 0.788052 -16.9129 159.744 -5.72517 14.4711 -87.1393 -1.95293 -10.3827 4.7713 -13.5925 -10.1629 5.22681 -36.4544 -11.3312 1.39497 -16.4417 -11.3312 1.39495 115.617 -46.4775 -60.2667 24.7045 19.6355 6.82959 84.6539 72.5682 -79.1822 1.93368 0.435854 15.4903 -69.3446 -40.4473 111.471 18.3919 -12.1953 62.4069 89.9014 46.5663 -159.886 -1.85792 0.169258 49.2341 -79.9446 13.6335 -15.7203 30.2666 26.2852 71.0055 
290.075 78.1131 -293.027 151.035 8.59586 -173.166 149.716 36.2289 -140.69 156.842 46.2357 103.987 61.3015 -16.208 -2.93665 39.4404 23.4282 111.343 107.611 -50.1912 20.3747 -84.8786 9.84556 11.3352 135.171 -65.8646 52.4526 66.9437 12.4278 142.129 -5.79242 14.7581 -87.041 -2.52844 -10.4878 4.86936 -14.1676 -10.2635 5.32947 -37.0356 -11.4607 1.4559 -17.023 -11.4607 1.45591 115.299 -50.2637 -61.7309 19.5371 17.2803 15.3895 99.7396 61.8535 -91.5152 -0.301894 0.0305031 15.7826 -68.4684 -38.1392 113.414 16.2031 -14.7734 60.0424 96.1683 43.124 -161.523 0.420633 1.2358 46.4185 -79.0045 13.808 -15.4619 29.3709 26.4381 72.2746 
